<svg xmlns="http://www.w3.org/2000/svg" viewBox="0 0 64 64">
  <!-- Background circle -->
  <circle cx="32" cy="32" r="30" fill="#f97316"/>
  
  <!-- Dog face -->
  <ellipse cx="32" cy="36" rx="18" ry="16" fill="#fbbf24"/>
  
  <!-- Ears -->
  <ellipse cx="16" cy="22" rx="8" ry="12" fill="#d97706" transform="rotate(-20 16 22)"/>
  <ellipse cx="48" cy="22" rx="8" ry="12" fill="#d97706" transform="rotate(20 48 22)"/>
  
  <!-- Eyes -->
  <circle cx="24" cy="32" r="4" fill="#1e293b"/>
  <circle cx="40" cy="32" r="4" fill="#1e293b"/>
  <circle cx="25" cy="31" r="1.5" fill="white"/>
  <circle cx="41" cy="31" r="1.5" fill="white"/>
  
  <!-- Nose -->
  <ellipse cx="32" cy="42" rx="5" ry="4" fill="#1e293b"/>
  <ellipse cx="32" cy="41" rx="2" ry="1" fill="#475569"/>
  
  <!-- Mouth -->
  <path d="M 28 46 Q 32 50 36 46" stroke="#1e293b" stroke-width="2" fill="none"/>
  
  <!-- Paw print at bottom -->
  <circle cx="32" cy="56" r="3" fill="white" opacity="0.8"/>
  <circle cx="27" cy="53" r="1.5" fill="white" opacity="0.8"/>
  <circle cx="37" cy="53" r="1.5" fill="white" opacity="0.8"/>
  <circle cx="29" cy="58" r="1.5" fill="white" opacity="0.8"/>
  <circle cx="35" cy="58" r="1.5" fill="white" opacity="0.8"/>
</svg>
